<?xml version="1.0" encoding="UTF-8" standalone="no"?>
<svg
   xmlns:dc="http://purl.org/dc/elements/1.1/"
   xmlns:cc="http://creativecommons.org/ns#"
   xmlns:rdf="http://www.w3.org/1999/02/22-rdf-syntax-ns#"
   xmlns:svg="http://www.w3.org/2000/svg"
   xmlns="http://www.w3.org/2000/svg"
   id="svg8"
   version="1.1"
   viewBox="0 0 7.9375 7.9375"
   height="50"
   width="50">
  <defs
     id="defs2" />
  <metadata
     id="metadata5">
    <rdf:RDF>
      <cc:Work
         rdf:about="">
        <dc:format>image/svg+xml</dc:format>
        <dc:type
           rdf:resource="http://purl.org/dc/dcmitype/StillImage" />
        <dc:title></dc:title>
      </cc:Work>
    </rdf:RDF>
  </metadata>
  <g
     transform="translate(0,-278.47917)"
     id="layer1">
    <path
       transform="matrix(0.21913382,0,0,0.22376575,-30.06825,-95.577382)"
       d="m 148.94813,1704.4859 -8.81397,-8.9338 0.0847,-12.5495 8.93378,-8.814 12.54956,0.085 8.81397,8.9338 -0.0847,12.5496 -8.93378,8.814 z"
       id="path1383-3-0"
       style="fill:#ff8889;fill-opacity:1;stroke:#c7484a;stroke-width:0.5639447;stroke-miterlimit:4;stroke-dasharray:none;stroke-opacity:1" />
    <g
       transform="matrix(0.21045093,0,0,0.21045093,11.037975,-117.56098)"
       id="text2345"
       style="font-style:normal;font-weight:normal;font-size:27.1668396px;line-height:1.25;font-family:sans-serif;letter-spacing:0px;word-spacing:0px;fill:#000000;fill-opacity:1;stroke:none;stroke-width:0.67917103"
       aria-label="+">
      <path
         id="path2365"
         style="stroke-width:0.67917103"
         d="m -32.476583,1893.3853 v 6.2102 H -26.25 c 0.59375,0 1.160156,0.5846 1.162055,1.1272 -0.0019,0.5789 -0.568305,1.1289 -1.162055,1.1278 h -6.226583 l 5.79e-4,6.4308 c 0,0.4804 -0.585573,0.957 -1.17634,0.9579 -0.536184,-9e-4 -1.049942,-0.4775 -1.049969,-0.9579 l -0.0028,-6.4308 h -6.328235 c -0.55218,0 -1.060402,-0.5489 -1.060402,-1.129 0,-0.5414 0.508222,-1.1214 1.060402,-1.126 h 6.328235 v -6.2213 c 0.0028,-0.5524 0.516585,-1.1711 1.063488,-1.1674 0.608337,-0.015 1.165621,0.615 1.165042,1.1785 z" />
    </g>
  </g>
</svg>
