<?xml version="1.0" encoding="UTF-8" standalone="no"?>
<svg
   xmlns:dc="http://purl.org/dc/elements/1.1/"
   xmlns:cc="http://creativecommons.org/ns#"
   xmlns:rdf="http://www.w3.org/1999/02/22-rdf-syntax-ns#"
   xmlns:svg="http://www.w3.org/2000/svg"
   xmlns="http://www.w3.org/2000/svg"
   width="50"
   height="50"
   viewBox="0 0 7.9375 7.9375"
   version="1.1"
   id="svg8">
  <defs
     id="defs2" />
  <metadata
     id="metadata5">
    <rdf:RDF>
      <cc:Work
         rdf:about="">
        <dc:format>image/svg+xml</dc:format>
        <dc:type
           rdf:resource="http://purl.org/dc/dcmitype/StillImage" />
        <dc:title></dc:title>
      </cc:Work>
    </rdf:RDF>
  </metadata>
  <path
     id="path4954-6"
     d="m 4.3787146,1.0121421 2.448172,2.6711007 c 0.267283,0.2809531 0.267851,0.2039366 0.0221,0.4803536 L 4.2948936,7.036433 C 3.9162666,7.47256 4.0507336,7.430098 3.6735546,7.019663 L 1.1178483,4.2386356 C 0.8571426,3.9599031 0.8322477,4.0384882 1.0763426,3.7681563 l 2.4805,-2.7471169 c 0.523005,-0.5760713 0.311535,-0.5657151 0.821872,-0.00891 z"
     style="fill:#fffbf2;fill-opacity:1;stroke:#000000;stroke-width:0.27663159;stroke-linecap:butt;stroke-linejoin:miter;stroke-miterlimit:4;stroke-dasharray:none;stroke-opacity:1" />
  <path
     id="path6551"
     d="M 2.4580506,3.9517739 3.9968476,7.176799 5.5540736,3.9241309 Z"
     style="fill:#fead00;fill-opacity:1;stroke:#000000;stroke-width:0.04205582px;stroke-linecap:butt;stroke-linejoin:miter;stroke-opacity:1" />
  <path
     id="path6553"
     d="M 5.5540736,3.9241309 4.0049106,0.671463 6.8982176,3.979417 Z"
     style="fill:#c98800;fill-opacity:1;stroke:#000000;stroke-width:0.04205582px;stroke-linecap:butt;stroke-linejoin:miter;stroke-opacity:1" />
  <path
     id="path6555"
     d="m 6.8982176,3.979417 -2.90137,3.197382 1.557226,-3.2526681 z"
     style="fill:#ac5800;fill-opacity:1;stroke:#000000;stroke-width:0.04205582px;stroke-linecap:butt;stroke-linejoin:miter;stroke-opacity:1" />
  <path
     id="path6557"
     d="M 2.4580506,3.9517739 3.9517496,0.6806295 1.0354063,4.0392623 Z"
     style="fill:#ffd477;fill-opacity:1;stroke:#000000;stroke-width:0.04205582px;stroke-linecap:butt;stroke-linejoin:miter;stroke-opacity:1" />
  <path
     id="path6559"
     d="M 1.0354063,4.0392623 3.9738126,7.209049 2.4580506,3.9517739 Z"
     style="fill:#ffd237;fill-opacity:1;stroke:#000000;stroke-width:0.04205582px;stroke-linecap:butt;stroke-linejoin:miter;stroke-opacity:1" />
</svg>
