<?xml version="1.0" encoding="UTF-8" standalone="no"?>
<svg
   xmlns:dc="http://purl.org/dc/elements/1.1/"
   xmlns:cc="http://creativecommons.org/ns#"
   xmlns:rdf="http://www.w3.org/1999/02/22-rdf-syntax-ns#"
   xmlns:svg="http://www.w3.org/2000/svg"
   xmlns="http://www.w3.org/2000/svg"
   xmlns:sodipodi="http://sodipodi.sourceforge.net/DTD/sodipodi-0.dtd"
   xmlns:inkscape="http://www.inkscape.org/namespaces/inkscape"
   id="svg1595"
   version="1.1"
   viewBox="0 0 175 175"
   height="175"
   width="175"
   sodipodi:docname="walker.svg"
   inkscape:version="0.92.5 (2060ec1f9f, 2020-04-08)">
  <sodipodi:namedview
     pagecolor="#ffffff"
     bordercolor="#666666"
     borderopacity="1"
     objecttolerance="10"
     gridtolerance="10"
     guidetolerance="10"
     inkscape:pageopacity="0"
     inkscape:pageshadow="2"
     inkscape:window-width="1848"
     inkscape:window-height="1016"
     id="namedview3130"
     showgrid="false"
     inkscape:zoom="2.36"
     inkscape:cx="87.5"
     inkscape:cy="50"
     inkscape:window-x="72"
     inkscape:window-y="27"
     inkscape:window-maximized="1"
     inkscape:current-layer="svg1595" />
  <metadata
     id="metadata1601">
    <rdf:RDF>
      <cc:Work
         rdf:about="">
        <dc:format>image/svg+xml</dc:format>
        <dc:type
           rdf:resource="http://purl.org/dc/dcmitype/StillImage" />
        <dc:title></dc:title>
      </cc:Work>
    </rdf:RDF>
  </metadata>
  <defs
     id="defs1599" />
  <g
     transform="translate(1.3031197,37.660996)"
     id="g1593"
     data-name="图层 2">
    <g
       id="g1591"
       data-name="图层 1-2">
      <path
         id="path1527"
         d="M 28.446,99.667 A 3.257,3.257 0 0 1 27.401,99.499 L 2.321,91.139 A 3.4,3.4 0 0 1 0.111,87.064 L 3.546,73.801 a 3.4,3.4 0 0 1 3.286,-2.545 h 5.914 l 28.889,-8.182 2.539,-0.972 a 3.576,3.576 0 0 1 0.261,-0.773 3.379,3.379 0 0 1 1.939,-1.761 l 7.419,-2.613 a 3.445,3.445 0 0 1 2.581,0.136 c 0.126,0.063 0.246,0.131 0.361,0.2 l 2.952,-1.124 a 3.381,3.381 0 0 1 1.745,-1.849 l 7.158,-3.276 a 3.429,3.429 0 0 1 1.416,-0.309 3.34,3.34 0 0 1 1.171,0.209 3.67,3.67 0 0 1 0.909,0.523 l 0.084,-0.032 0.783,-0.485 a 3.421,3.421 0 0 1 0.042,-1.322 3.37,3.37 0 0 1 1.5,-2.122 l 6.651,-4.18 a 3.431,3.431 0 0 1 1.813,-0.522 2.645,2.645 0 0 1 0.308,0 l 0.267,-0.335 a 3.406,3.406 0 0 1 0.272,-3.422 l 4.488,-6.442 a 4.25,4.25 0 0 1 0.277,-0.345 3.4,3.4 0 0 1 -0.6,-2.942 l 1.009,-3.8 a 3.367,3.367 0 0 1 0.8,-1.447 L 90.02,4.392 V 3.415 a 3.4,3.4 0 0 1 3.381,-3.412 h 25.467 a 3.4,3.4 0 0 1 1.891,0.575 l 0.523,0.344 0.256,0.377 a 3.275,3.275 0 0 1 0.465,0.794 l 3.218,7.733 h 5.183 a 3.4,3.4 0 0 1 2.712,-1.353 h 6.83 a 3.387,3.387 0 0 1 2.712,1.353 h 12.08 a 3.4,3.4 0 0 1 3.4,3.4 v 6.49 h 0.173 a 3.4,3.4 0 0 1 2.524,1.128 l 2.612,2.926 a 3.384,3.384 0 0 1 0.873,2.273 v 9.018 a 3.4,3.4 0 0 1 -0.784,2.211 l -2.879,3.349 a 3.379,3.379 0 0 1 -2.519,1.186 v 11.072 l 8.172,20.649 h 0.225 a 3.4,3.4 0 0 1 3.339,2.764 l 2.456,12.973 a 3.386,3.386 0 0 1 -2.174,3.825 l -17.7,6.385 a 3.393,3.393 0 0 1 -1.155,0.2 z"
         data-name="路径 331"
         inkscape:connector-curvature="0" />
      <path
         id="path1529"
         d="m 169.246,89.838 -0.7,-3.7 -1.756,-9.274 a 0.265,0.265 0 0 0 -0.287,-0.214 l -2.231,0.245 -9.275,-23.424 V 38.664 h 3.062 a 0.273,0.273 0 0 0 0.2,-0.089 l 2.874,-3.349 a 0.274,0.274 0 0 0 0.062,-0.173 v -9.018 a 0.246,0.246 0 0 0 -0.068,-0.178 l -2.612,-2.926 a 0.251,0.251 0 0 0 -0.193,-0.088 h -3.3 v -9.62 a 0.261,0.261 0 0 0 -0.261,-0.261 H 140.206 V 11.87 a 0.261,0.261 0 0 0 -0.261,-0.261 h -6.829 a 0.261,0.261 0 0 0 -0.261,0.261 v 1.092 h -9.724 L 119.118,3.301 A 0.472,0.472 0 0 0 119.056,3.223 0.038,0.038 0 0 0 119.024,3.186 0.254,0.254 0 0 0 118.878,3.139 H 93.411 A 0.258,0.258 0 0 0 93.15,3.4 V 4.445 L 92.884,26.296 92.33,26.124 a 0.261,0.261 0 0 0 -0.319,0.183 l -1.008,3.8 a 0.26,0.26 0 0 0 0.187,0.319 l 1.646,0.434 -0.058,4.535 -1.567,-1.081 a 0.261,0.261 0 0 0 -0.361,0.068 l -2.231,3.234 -2.247,3.224 a 0.261,0.261 0 0 0 0.065,0.363 l 1.364,0.946 -3.966,4.953 -0.663,-1.045 a 0.257,0.257 0 0 0 -0.351,-0.089 l -0.01,0.006 -3.328,2.09 -3.323,2.09 a 0.265,0.265 0 0 0 -0.084,0.36 l 0.988,1.568 -3.506,2.179 -2.749,1.045 -0.575,-1.265 a 0.285,0.285 0 0 0 -0.146,-0.136 0.261,0.261 0 0 0 -0.2,0 l -3.579,1.636 -3.574,1.635 a 0.284,0.284 0 0 0 -0.136,0.146 0.276,0.276 0 0 0 0,0.2 l 0.35,0.763 -7.43,2.837 -0.361,-1.045 a 0.275,0.275 0 0 0 -0.135,-0.151 0.285,0.285 0 0 0 -0.2,0 l -3.71,1.306 -3.71,1.3 a 0.267,0.267 0 0 0 -0.146,0.136 0.244,0.244 0 0 0 0,0.2 L 47.691,64.107 42.623,66.04 13.18,74.4 H 6.816 A 0.266,0.266 0 0 0 6.565,74.6 L 3.116,87.845 a 0.256,0.256 0 0 0 0.168,0.313 l 25.08,8.36 a 0.172,0.172 0 0 0 0.078,0 h 122.946 l 17.692,-6.39 a 0.266,0.266 0 0 0 0.166,-0.29 z M 156.816,34.25 h -1.819 v -7.19 h 1.866 z"
         data-name="路径 332"
         inkscape:connector-curvature="0" />
      <path
         id="path1531"
         transform="translate(-526.254,-1005.899)"
         style="fill:#ffffff;stroke:#000000;stroke-width:0.52200001px;stroke-linecap:round;stroke-linejoin:round"
         d="m 568.952,1072.194 30.958,-11.794 32.432,-20.148 8.846,-21.13 h 39.8 v 9.337 H 648.56 l -7.864,18.674 -38.331,23.094 -28.011,10.319 h -10.81 z"
         data-name="路径 333"
         inkscape:connector-curvature="0" />
      <path
         id="path1533"
         transform="translate(-526.254,-1005.899)"
         style="fill:#ffffff;stroke:#000000;stroke-width:0.52200001px;stroke-linecap:round;stroke-linejoin:round"
         d="m 563.544,1080.548 h -24.077 l 29.485,-8.355 z"
         data-name="路径 334"
         inkscape:connector-curvature="0" />
      <path
         id="path1535"
         transform="translate(-526.254,-1005.899)"
         style="fill:#ffffff;stroke:#000000;stroke-width:0.52200001px;stroke-linecap:round;stroke-linejoin:round"
         d="m 574.354,1080.548 h 50.129 l -22.117,-10.319 z"
         data-name="路径 335"
         inkscape:connector-curvature="0" />
      <path
         id="path1537"
         transform="translate(-526.254,-1005.899)"
         style="fill:#ffffff;stroke:#000000;stroke-width:0.52200001px;stroke-linecap:round;stroke-linejoin:round"
         d="m 640.7,1047.135 -16.213,33.414 -22.117,-10.319 z"
         data-name="路径 336"
         inkscape:connector-curvature="0" />
      <path
         id="path1539"
         transform="translate(-526.254,-1005.899)"
         style="fill:#ffffff;stroke:#000000;stroke-width:0.52200001px;stroke-linecap:round;stroke-linejoin:round"
         d="m 609.059,1054.721 10.231,-12.786 0.392,-32.641 h 25.441 l 4.086,9.828 h -8.02 l -8.846,21.13 z"
         data-name="路径 337"
         inkscape:connector-curvature="0" />
      <path
         id="path1541"
         transform="translate(-526.254,-1005.899)"
         style="fill:#ffffff;stroke:#000000;stroke-width:0.52200001px;stroke-linecap:round;stroke-linejoin:round"
         d="m 619.681,1013.334 22.488,-0.11 2.466,5.9 h 4.415 l -3.929,-9.828 h -25.456 z"
         data-name="路径 338"
         inkscape:connector-curvature="0" />
      <path
         id="path1543"
         transform="translate(-526.254,-1005.899)"
         style="fill:#ffffff;stroke:#000000;stroke-width:0.52200001px;stroke-linecap:round;stroke-linejoin:round"
         d="m 619.582,1019.123 h 12.268 v 5.408 l -5.4,4.42 h -6.881 z"
         data-name="路径 339"
         inkscape:connector-curvature="0" />
      <path
         id="path1545"
         transform="translate(-526.254,-1005.899)"
         style="fill:#ffffff;stroke:#000000;stroke-width:0.52200001px;stroke-linecap:round;stroke-linejoin:round"
         d="m 680.991,1028.46 v 30.958 l -10.272,21.13 h -46.236 l 16.213,-33.414 7.864,-18.674 z"
         data-name="路径 340"
         inkscape:connector-curvature="0" />
      <path
         id="path1547"
         transform="translate(-526.254,-1005.899)"
         style="fill:#ffffff;stroke:#000000;stroke-width:0.52200001px;stroke-linecap:round;stroke-linejoin:round"
         d="m 680.991,1059.418 -12.66,26.047 22,-2.461 z"
         data-name="路径 341"
         inkscape:connector-curvature="0" />
      <path
         id="path1549"
         transform="translate(-526.254,-1005.899)"
         style="fill:#ffffff;stroke:#000000;stroke-width:0.52200001px;stroke-linecap:round;stroke-linejoin:round"
         d="m 680.991,1059.418 h -46.21 l -10.3,21.13 h 46.236 z"
         data-name="路径 342"
         inkscape:connector-curvature="0" />
      <path
         id="path1551"
         transform="translate(-526.254,-1005.899)"
         style="fill:#ffffff;stroke:#000000;stroke-width:0.52200001px;stroke-linecap:round;stroke-linejoin:round"
         d="M 670.719,1080.548 H 533.077 l -3.438,13.271 25.064,8.35 h 122.85 l 17.692,-6.385 -2.456,-12.974 -24.458,2.654 z"
         data-name="路径 343"
         inkscape:connector-curvature="0" />
      <path
         id="path1553"
         transform="translate(-526.254,-1005.899)"
         style="fill:#ffffff;stroke:#000000;stroke-width:0.52200001px;stroke-linecap:round;stroke-linejoin:round"
         d="m 531.556,1086.427 23.638,5.518 -0.491,10.225 -25.064,-8.35 z"
         data-name="路径 344"
         inkscape:connector-curvature="0" />
      <path
         id="path1555"
         transform="translate(-526.254,-1005.899)"
         style="fill:#ffffff;stroke:#000000;stroke-width:0.52200001px;stroke-linecap:round;stroke-linejoin:round"
         d="m 554.854,1098.47 h 121.471 l 18.22,-6.38 0.7,3.694 -17.692,6.385 H 554.7 Z"
         data-name="路径 345"
         inkscape:connector-curvature="0" />
      <path
         id="path1557"
         transform="translate(-526.254,-1005.899)"
         style="fill:#ffffff;stroke:#000000;stroke-width:0.52200001px;stroke-linecap:round;stroke-linejoin:round"
         d="m 539.467,1080.548 23.3,4.917 h 105.564 l 2.388,-4.917 z"
         data-name="路径 346"
         inkscape:connector-curvature="0" />
      <path
         id="path1559"
         transform="translate(-526.254,-1005.899)"
         style="fill:#ffffff;stroke:#000000;stroke-width:0.52200001px;stroke-linecap:round;stroke-linejoin:round"
         d="m 672.7,1076.374 h -38.389 v -3.934 l 36.277,-0.094 v -12.629 l -18.1,0.246 -3.464,-2.508 0.01,-13.376 3.281,-3.668 h 31.01 l 0.052,-7.707 h -2.388 V 1029 h 3.563 l 2.633,2.931 v 9.018 l -2.874,3.349 -31.381,0.083 v 11.469 l 18.387,-0.052 3.391,3.323 -0.047,13.313 z"
         data-name="路径 347"
         inkscape:connector-curvature="0" />
      <path
         id="path1561"
         d="M 0,0 H 3.929 V 7.9 H 0 Z"
         style="fill:#ffffff;stroke:#000000;stroke-width:0.52200001px;stroke-linecap:round;stroke-linejoin:round"
         transform="rotate(-19.35,207.907,-107.892)"
         data-name="矩形 89"
         inkscape:connector-curvature="0" />
      <path
         id="path1563"
         d="M 0,0 H 3.929 V 7.9 H 0 Z"
         style="fill:#ffffff;stroke:#000000;stroke-width:0.52200001px;stroke-linecap:round;stroke-linejoin:round"
         transform="rotate(-19.35,205.947,-119.423)"
         data-name="矩形 90"
         inkscape:connector-curvature="0" />
      <path
         id="path1565"
         d="M 0,0 H 3.929 V 8.365 H 0 Z"
         style="fill:#ffffff;stroke:#000000;stroke-width:0.523px;stroke-linecap:round;stroke-linejoin:round"
         transform="rotate(-24.58,163.218,-115.538)"
         data-name="矩形 91"
         inkscape:connector-curvature="0" />
      <path
         id="path1567"
         d="M 0,0 H 3.929 V 8.365 H 0 Z"
         style="fill:#ffffff;stroke:#000000;stroke-width:0.523px;stroke-linecap:round;stroke-linejoin:round"
         transform="rotate(-24.58,161.261,-124.554)"
         data-name="矩形 92"
         inkscape:connector-curvature="0" />
      <path
         id="path1569"
         d="M 0,0 H 3.929 V 9.41 H 0 Z"
         style="fill:#ffffff;stroke:#000000;stroke-width:0.52200001px;stroke-linecap:round;stroke-linejoin:round"
         transform="rotate(-32.21,125.394,-106.948)"
         data-name="矩形 93"
         inkscape:connector-curvature="0" />
      <path
         id="path1571"
         d="M 0,0 H 3.929 V 9.41 H 0 Z"
         style="fill:#ffffff;stroke:#000000;stroke-width:0.52200001px;stroke-linecap:round;stroke-linejoin:round"
         transform="rotate(-32.21,123.436,-113.751)"
         data-name="矩形 94"
         inkscape:connector-curvature="0" />
      <path
         id="path1573"
         d="M 0,0 H 3.929 V 13.925 H 0 Z"
         style="fill:#ffffff;stroke:#000000;stroke-width:0.52200001px;stroke-linecap:round;stroke-linejoin:round"
         transform="rotate(-55.18,82.503,-62.35)"
         data-name="矩形 95"
         inkscape:connector-curvature="0" />
      <path
         id="path1575"
         d="M 0,0 H 3.929 V 13.925 H 0 Z"
         style="fill:#ffffff;stroke:#000000;stroke-width:0.52200001px;stroke-linecap:round;stroke-linejoin:round"
         transform="rotate(-55.18,80.543,-66.118)"
         data-name="矩形 96"
         inkscape:connector-curvature="0" />
      <path
         id="path1577"
         d="M 0,0 H 3.929 V 19.902 H 0 Z"
         style="fill:#ffffff;stroke:#000000;stroke-width:0.52200001px;stroke-linecap:round;stroke-linejoin:round"
         transform="rotate(-75.17,65.214,-44.174)"
         data-name="矩形 97"
         inkscape:connector-curvature="0" />
      <path
         id="path1579"
         d="M 0,0 H 6.829 V 28.743 H 0 Z"
         style="fill:#ffffff;stroke:#000000;stroke-width:0.52200001px;stroke-linecap:round;stroke-linejoin:round"
         transform="translate(133.116,11.871)"
         data-name="矩形 98"
         inkscape:connector-curvature="0" />
      <path
         id="path1581"
         d="M 0,0 H 6.829 V 7.937 H 0 Z"
         style="fill:#ffffff;stroke:#000000;stroke-width:0.52200001px;stroke-linecap:round;stroke-linejoin:round"
         transform="translate(133.116,47.924)"
         data-name="矩形 99"
         inkscape:connector-curvature="0" />
      <path
         id="path1583"
         d="M 0,0 H 6.829 V 7.806 H 0 Z"
         style="fill:#ffffff;stroke:#000000;stroke-width:0.52200001px;stroke-linecap:round;stroke-linejoin:round"
         transform="translate(133.116,64.33)"
         data-name="矩形 100"
         inkscape:connector-curvature="0" />
      <path
         id="path1585"
         d="M 0,0 H 6.61 V 7.806 H 0 Z"
         style="fill:#ffffff;stroke:#000000;stroke-width:0.52200001px;stroke-linecap:round;stroke-linejoin:round"
         transform="translate(113.627,64.33)"
         data-name="矩形 101"
         inkscape:connector-curvature="0" />
      <path
         id="path1587"
         d="m 154.288,52.688 8.475,-3.5 4.701,11.383 -8.474,3.5 z"
         data-name="矩形 102"
         inkscape:connector-curvature="0" />
      <path
         id="path1589"
         transform="translate(-526.254,-1005.899)"
         style="fill:#56ff8b;fill-rule:evenodd"
         d="m 685.7,1058.175 -0.4,7.487 2.221,-1.055 1.588,3.887 0.131,-7.174 -2.153,1.008 z"
         data-name="路径 348"
         inkscape:connector-curvature="0" />
    </g>
  </g>
</svg>
